<?xml version="1.0" encoding="UTF-8"?>
<svg xmlns="http://www.w3.org/2000/svg" xmlns:xlink="http://www.w3.org/1999/xlink" viewBox="0 0 48 48" width="48px" height="48px">
<g id="surface220122">
<path style=" stroke:none;fill-rule:nonzero;fill:rgb(0%,0%,0%);fill-opacity:1;" d="M 21.90625 31.773438 L 24.507812 29.046875 L 27.105469 31.773438 L 27.105469 43 L 21.90625 43 Z M 21.90625 31.773438 "/>
<path style=" stroke:none;fill-rule:nonzero;fill:rgb(0%,0%,0%);fill-opacity:1;" d="M 17.738281 29.058594 L 21.441406 28.382812 L 21.945312 32.113281 L 15.34375 41.199219 L 11.136719 38.140625 Z M 17.738281 29.058594 "/>
<path style=" stroke:none;fill-rule:nonzero;fill:rgb(0%,0%,0%);fill-opacity:1;" d="M 15.960938 24.410156 L 19.355469 26.039062 L 17.570312 29.355469 L 6.890625 32.824219 L 5.28125 27.878906 Z M 15.960938 24.410156 "/>
<path style=" stroke:none;fill-rule:nonzero;fill:rgb(0%,0%,0%);fill-opacity:1;" d="M 17.257812 19.605469 L 19.042969 22.921875 L 15.648438 24.554688 L 4.96875 21.085938 L 6.578125 16.136719 Z M 17.257812 19.605469 "/>
<path style=" stroke:none;fill-rule:nonzero;fill:rgb(0%,0%,0%);fill-opacity:1;" d="M 21.125 16.480469 L 20.621094 20.214844 L 16.917969 19.539062 L 10.316406 10.453125 L 14.527344 7.398438 Z M 21.125 16.480469 "/>
<path style=" stroke:none;fill-rule:nonzero;fill:rgb(0%,0%,0%);fill-opacity:1;" d="M 26.09375 16.226562 L 23.492188 18.953125 L 20.894531 16.226562 L 20.894531 5 L 26.09375 5 Z M 26.09375 16.226562 "/>
<path style=" stroke:none;fill-rule:nonzero;fill:rgb(0%,0%,0%);fill-opacity:1;" d="M 30.261719 18.941406 L 26.558594 19.617188 L 26.054688 15.886719 L 32.652344 6.800781 L 36.863281 9.859375 Z M 30.261719 18.941406 "/>
<path style=" stroke:none;fill-rule:nonzero;fill:rgb(0%,0%,0%);fill-opacity:1;" d="M 32.039062 23.589844 L 28.644531 21.957031 L 30.429688 18.644531 L 41.109375 15.175781 L 42.71875 20.121094 Z M 32.039062 23.589844 "/>
<path style=" stroke:none;fill-rule:nonzero;fill:rgb(0%,0%,0%);fill-opacity:1;" d="M 30.742188 28.394531 L 28.957031 25.078125 L 32.351562 23.445312 L 43.03125 26.914062 L 41.421875 31.863281 Z M 30.742188 28.394531 "/>
<path style=" stroke:none;fill-rule:nonzero;fill:rgb(0%,0%,0%);fill-opacity:1;" d="M 26.875 31.519531 L 27.378906 27.785156 L 31.082031 28.460938 L 37.683594 37.546875 L 33.472656 40.601562 Z M 26.875 31.519531 "/>
</g>
</svg>
